<svg width="54" height="56" viewBox="0 0 54 56" fill="none" xmlns="http://www.w3.org/2000/svg">
<rect x="-1" y="1" width="52" height="54" rx="26" transform="matrix(-1 0 0 1 52 0)" stroke="#959EAD" stroke-width="2"/>
<path d="M26.6831 34.9375C26.3706 34.625 26.4019 34.1562 26.6831 33.8438L30.4644 30.25H21.4644C21.0581 30.25 20.7144 29.9375 20.7144 29.5V28.5C20.7144 28.0938 21.0581 27.75 21.4644 27.75H30.4644L26.6831 24.1875C26.4019 23.875 26.3706 23.4062 26.6831 23.0938L27.3706 22.4062C27.6519 22.125 28.1519 22.125 28.4331 22.4062L34.4956 28.5C34.8081 28.7812 34.8081 29.25 34.4956 29.5312L28.4331 35.625C28.1519 35.9062 27.6831 35.9062 27.3706 35.625L26.6831 34.9375Z" fill="#959EAD"/>
</svg>
